PathFileType	4	(X/Y/Z)	/Users/niels/Desktop/University/Third Semester/Perception and Action/Exam/Gymnastics Motion Tracking/Code for Gym Tracking/Analyzed Data/Webcam_Backflip/id1_3_trajectory_Sports2D/id1_3_trajectory_Sports2D_px_person00.trc
DataRate	CameraRate	NumFrames	NumMarkers	Units	OrigDataRate	OrigDataStartFrame	OrigNumFrames
29.71698113207547	29.71698113207547	8	22	m	29.71698113207547	26	106
Frame#	Time	Hip			RHip			RKnee			RAnkle			RBigToe			RSmallToe			RHeel			LHip			LKnee			LAnkle			LBigToe			LSmallToe			LHeel			Neck			Head			Nose			RShoulder			RElbow			RWrist			LShoulder			LElbow			LWrist		
		X1	Y1	Z1	X2	Y2	Z2	X3	Y3	Z3	X4	Y4	Z4	X5	Y5	Z5	X6	Y6	Z6	X7	Y7	Z7	X8	Y8	Z8	X9	Y9	Z9	X10	Y10	Z10	X11	Y11	Z11	X12	Y12	Z12	X13	Y13	Z13	X14	Y14	Z14	X15	Y15	Z15	X16	Y16	Z16	X17	Y17	Z17	X18	Y18	Z18	X19	Y19	Z19	X20	Y20	Z20	X21	Y21	Z21	X22	Y22	Z22
26	0.8749206349206348	0.9647369381056682	-0.6078420663981213	0.0	0.9580175743308611	-0.6047003928237049	0.0	0.9717352087848989	-0.7315636470065776	0.0	0.9674988040501762	-0.857975894169194	0.0	1.0217085145540081	-0.8812820296861184	0.0	0.9994260586833591	-0.8832290063497434	0.0	0.9607517241719213	-0.8786880611153512	0.0	0.9725663985584494	-0.605245553077581	0.0	0.9723293615024848	-0.728243784938047	0.0	0.9757411650595595	-0.8521694795172311	0.0	1.0134700719644372	-0.8700606819608282	0.0	1.0169589928198082	-0.8696013656125859	0.0	0.9542297167702112	-0.8703268145106441	0.0	1.0185869400036152	-0.4342018985662827	0.0	1.0759524796437545	-0.36579500028837103	0.0	1.0773411098023686	-0.41990331814631054	0.0	0.9990456615064861	-0.43869054543567065	0.0	0.9474580683901169	-0.4588893301802791	0.0	0.9205499469223495	-0.45941222045528995	0.0	1.0154944634990293	-0.4491952569926924	0.0	0.9776630982561672	-0.4763723085316556	0.0	0.9684550779243807	-0.483294651613321	0.0
27	0.9085714285714285	0.9631294903205853	-0.6001301393766321	0.0	0.955653386317484	-0.5966914425024537	0.0	0.9717365955978433	-0.7251764359520823	0.0	0.9675872853247753	-0.8511177615580876	0.0	1.0090982911486925	-0.8712662178147561	0.0	0.9994808420538474	-0.876919460105658	0.0	0.9596903626091622	-0.8714782948611054	0.0	0.971152270612661	-0.597208303996911	0.0	0.9688513586239914	-0.7205151398642883	0.0	0.9572447376359534	-0.8400606345290615	0.0	1.013699281238698	-0.8629067321424376	0.0	1.0018830200107598	-0.8581944778428465	0.0	0.9546938131142432	-0.8628216061908414	0.0	1.021894588780371	-0.43083676559883055	0.0	1.0828776543273508	-0.36455252878497585	0.0	1.0676042491866373	-0.4011906911397453	0.0	1.003586026085184	-0.4342251361947289	0.0	0.944151627840477	-0.44283708981003195	0.0	0.9017689200371094	-0.43770693659358556	0.0	1.017929024569467	-0.444430695815643	0.0	0.9741331501283246	-0.46261861676397775	0.0	0.9485740383209657	-0.4604565685796464	0.0
28	0.9422222222222221	0.9602828768315872	-0.5926794479383268	0.0	0.9524173713027817	-0.589077892399121	0.0	0.9737062630717254	-0.717728460817737	0.0	0.967782555959053	-0.843629765802879	0.0	1.0061117694332395	-0.8629404493374281	0.0	1.0005411708222547	-0.8698168904315062	0.0	0.9587429657398072	-0.8634750932206405	0.0	0.9687627116898454	-0.5894835643563421	0.0	0.9665657746183189	-0.7113576861126625	0.0	0.9484476585014224	-0.8297055503677485	0.0	1.0146905576104184	-0.8551531274886263	0.0	0.9955750427384008	-0.848250935192976	0.0	0.9556213896855852	-0.8543904756044133	0.0	1.025163308952943	-0.42869451435929795	0.0	1.090673896737147	-0.3653047700295293	0.0	1.0654086774089615	-0.39250874808504677	0.0	1.0088978949243388	-0.4312111483797228	0.0	0.9416132478693652	-0.4308819127466143	0.0	0.8862828253253127	-0.4236198300325575	0.0	1.019723914921715	-0.44031356998723153	0.0	0.9697099990588336	-0.45158755859720706	0.0	0.9319530728862582	-0.4451238786179919	0.0
29	0.9758730158730158	0.9566090459212825	-0.5863445364592649	0.0	0.9485545176038837	-0.5827873756037119	0.0	0.9776952811869484	-0.7098446124653246	0.0	0.9680831535625708	-0.8361425817830977	0.0	1.0082782596420248	-0.8558385189844335	0.0	1.002195650009897	-0.8625965249820996	0.0	0.9580656687802599	-0.85537851053372	0.0	0.9658240312767767	-0.5830453317510595	0.0	0.9673315525569023	-0.7017971325902059	0.0	0.9463440424433395	-0.8207320585815477	0.0	1.0163694720090046	-0.8475096136816797	0.0	0.9950575262666986	-0.8397984363995019	0.0	0.9566054209959808	-0.8456054372677062	0.0	1.0281801462329023	-0.4283536429995812	0.0	1.0983842493111369	-0.3684390726045259	0.0	1.0679502521278017	-0.39152977427570224	0.0	1.0142217378352183	-0.4303842238126285	0.0	0.9391806723343843	-0.4236941892734	0.0	0.8737562231918908	-0.4170232819947733	0.0	1.0209059755291625	-0.43755651449889194	0.0	0.9647761059860145	-0.4442869515567296	0.0	0.9205666030640103	-0.4385784557968501	0.0
30	1.0095238095238095	0.952684816082449	-0.5819335568930244	0.0	0.9444602298544109	-0.5786546177650023	0.0	0.9833708534618394	-0.7024805811173046	0.0	0.9685494292186474	-0.8293727132944677	0.0	1.0122642113349318	-0.8499231800783341	0.0	1.0040628721712643	-0.8560432591547708	0.0	0.9577790308556338	-0.8479543763020364	0.0	0.9629379558983788	-0.5787814127268017	0.0	0.9743650233634258	-0.6937388514933845	0.0	0.9510346050413226	-0.8134881988925071	0.0	1.018682658214913	-0.8407404081997674	0.0	0.9997938498638345	-0.8335167850149369	0.0	0.9574318039773613	-0.8371598123015981	0.0	1.0307387384149669	-0.43010643511528107	0.0	1.1048407811854712	-0.3738805723656734	0.0	1.0746681585470343	-0.39813670632560233	0.0	1.0187215937515617	-0.43212648336178633	0.0	0.937023820437026	-0.4211585336337065	0.0	0.8641699779617208	-0.4166576760842232	0.0	1.0216386934699735	-0.4368363890525011	0.0	0.9604601581912039	-0.44099700612471293	0.0	0.914672860437712	-0.4391813999871138	0.0
31	1.043174603174603	0.949182989791694	-0.5800673134069325	0.0	0.9406850138426328	-0.5772497352786126	0.0	0.9899518442440361	-0.696849613459613	0.0	0.9692214424388119	-0.8241861785542727	0.0	1.016115203342928	-0.8456350145993546	0.0	1.0058767530085924	-0.851070279654033	0.0	0.9579142522130832	-0.8420969412456956	0.0	0.9607423368544354	-0.5772868108846894	0.0	0.9923928654686177	-0.6900766324177217	0.0	0.9663984734908284	-0.8094598097778181	0.0	1.0214982174378973	-0.8357359100139234	0.0	1.0122280116303917	-0.8309737126334094	0.0	0.9581369718391651	-0.8300435398068321	0.0	1.032505616961106	-0.4338331917924755	0.0	1.1088216789549825	-0.38102255876288615	0.0	1.08767639065972	-0.41485725761674924	0.0	1.0217235722633815	-0.4362373773852196	0.0	0.9357690947486652	-0.42246021988951604	0.0	0.8581218930571733	-0.42045520870644293	0.0	1.0219634100996815	-0.4384341257108139	0.0	0.9577597539917448	-0.4412199493363433	0.0	0.9134343670839017	-0.4440308015668523	0.0
32	1.0768253968253967	0.9467174392531859	-0.5811100012895812	0.0	0.937858155502094	-0.5788408365922575	0.0	0.9963134012996409	-0.6942114654675178	0.0	0.9700571222502241	-0.8216167220233556	0.0	1.0189786541285504	-0.8437550440048376	0.0	1.0074654641404515	-0.8486880704461233	0.0	0.9583751603128335	-0.8388898920434688	0.0	0.9596677693852065	-0.5788285053583538	0.0	1.0271290945318592	-0.6943617742710079	0.0	0.9992039033049882	-0.8112099668758992	0.0	1.0245066563208345	-0.8334408573528611	0.0	1.0371583866824308	-0.8344520807434154	0.0	0.9588118130136646	-0.8255896768648251	0.0	1.0329652444275819	-0.4390873749396277	0.0	1.109115046316894	-0.3888764509154304	0.0	1.1111592463208906	-0.4463355098830825	0.0	1.0228012786367093	-0.4420736995425495	0.0	0.9361759192043386	-0.4263622106860565	0.0	0.8567278717082768	-0.4259560633084392	0.0	1.0216593497919488	-0.44212904536169106	0.0	0.9572338556999447	-0.44389987019426275	0.0	0.916092717011751	-0.4500913397088645	0.0
33	1.1104761904761904	0.9457007734261949	-0.5851885806989097	0.0	0.9365201939344724	-0.5834701353792444	0.0	1.0013278025743395	-0.6955760234725302	0.0	0.9709509892696239	-0.8226297958342106	0.0	1.0207136709715419	-0.8450868962465068	0.0	1.0087372926355025	-0.849781531198635	0.0	0.9589804877868779	-0.8393834057855257	0.0	0.959840734706925	-0.5834374868551193	0.0	1.083385440697228	-0.7097372438194424	0.0	1.0561208690133754	-0.8214260553363205	0.0	1.0272903860199685	-0.8346315637838846	0.0	1.079498613793305	-0.8461379375735681	0.0	0.9594724103925631	-0.8251313397316681	0.0	1.0315787922417805	-0.44532866009274336	0.0	1.1047507798334257	-0.3964319813062454	0.0	1.1493793912906431	-0.4972257856380505	0.0	1.0217733553255293	-0.44889684561908505	0.0	0.9388891929090453	-0.43164568071607823	0.0	0.861185560137992	-0.43094555665141066	0.0	1.0203732625253465	-0.44742530792328894	0.0	0.9591127941893602	-0.4478997011503448	0.0	0.9224158157307693	-0.4549212317132133	0.0
